<?xml version="1.0" encoding="UTF-8" standalone="no"?>
<!-- Created with Inkscape (http://www.inkscape.org/) -->

<svg
   xmlns:dc="http://purl.org/dc/elements/1.1/"
   xmlns:cc="http://creativecommons.org/ns#"
   xmlns:rdf="http://www.w3.org/1999/02/22-rdf-syntax-ns#"
   xmlns:svg="http://www.w3.org/2000/svg"
   xmlns="http://www.w3.org/2000/svg"
   xmlns:sodipodi="http://sodipodi.sourceforge.net/DTD/sodipodi-0.dtd"
   xmlns:inkscape="http://www.inkscape.org/namespaces/inkscape"
   width="500"
   height="500"
   viewBox="0 0 132.29166 132.29167"
   version="1.1"
   id="svg2756"
   inkscape:version="0.92.3 (2405546, 2018-03-11)"
   sodipodi:docname="labellab logo 2.svg">
  <defs
     id="defs2750" />
  <sodipodi:namedview
     id="base"
     pagecolor="#ffffff"
     bordercolor="#666666"
     borderopacity="1.0"
     inkscape:pageopacity="0.0"
     inkscape:pageshadow="2"
     inkscape:zoom="0.35"
     inkscape:cx="323.22294"
     inkscape:cy="108.66749"
     inkscape:document-units="mm"
     inkscape:current-layer="layer1"
     showgrid="false"
     units="px"
     inkscape:showpageshadow="false"
     inkscape:window-width="1366"
     inkscape:window-height="705"
     inkscape:window-x="-8"
     inkscape:window-y="-8"
     inkscape:window-maximized="1" />
  <metadata
     id="metadata2753">
    <rdf:RDF>
      <cc:Work
         rdf:about="">
        <dc:format>image/svg+xml</dc:format>
        <dc:type
           rdf:resource="http://purl.org/dc/dcmitype/StillImage" />
        <dc:title></dc:title>
      </cc:Work>
    </rdf:RDF>
  </metadata>
  <g
     inkscape:label="Layer 1"
     inkscape:groupmode="layer"
     id="layer1"
     transform="translate(0,-164.70832)">
    <g
       transform="matrix(0.8555632,0,0,0.87515553,435.34805,251.84805)"
       style="opacity:1"
       id="g2689">
      <g
         transform="translate(-417.16187,181.05218)"
         id="g2438">
        <g
           transform="translate(91.94072,-307.8945)"
           id="g2338">
          <ellipse
             style="fill:#ff7f32;fill-opacity:1;stroke-width:0.12646197"
             id="ellipse2284"
             cx="-111.54932"
             cy="70.620285"
             rx="27.799412"
             ry="27.727646" />
          <g
             id="g2292"
             transform="matrix(0.9964872,0,0,1.0602328,-0.51455583,-3.6235968)">
            <rect
               x="-152.28746"
               y="60.498512"
               width="11.614493"
               height="25.99246"
               ry="1.1173306"
               rx="0.6359576"
               style="fill:#b7c4c8;stroke:#000000;stroke-width:1.46413028"
               id="rect2286" />
            <path
               d="m -149.72207,75.729306 h 6.48359"
               inkscape:connector-curvature="0"
               style="fill:#b7c4c8;stroke:#000000;stroke-width:1.00227463;stroke-linecap:round"
               id="path2288" />
            <path
               inkscape:connector-curvature="0"
               style="fill:#b7c4c8;stroke:#000000;stroke-width:1.00227463;stroke-linecap:round"
               d="m -149.72207,80.198626 h 6.48359"
               id="path2290" />
          </g>
          <g
             id="g2308">
            <rect
               x="-110.90796"
               y="56.28141"
               width="26.530403"
               height="34.917957"
               ry="1.5010083"
               rx="1.452686"
               style="fill:#ffd458;fill-opacity:1;stroke:#000000;stroke-width:2.56479239"
               id="rect2294" />
            <path
               d="m -105.04797,76.742269 h 14.810135"
               inkscape:connector-curvature="0"
               style="fill:#ffd458;fill-opacity:1;stroke:#000000;stroke-width:1.75573623;stroke-linecap:round"
               id="path2296" />
            <path
               inkscape:connector-curvature="0"
               style="fill:#ffd458;fill-opacity:1;stroke:#000000;stroke-width:1.75573623;stroke-linecap:round"
               d="m -105.04797,82.746303 h 14.810135"
               id="path2298" />
            <g
               transform="matrix(0.43314674,0,0,0.45953483,-136.07329,104.45628)"
               id="g2306">
              <path
                 style="fill:#999999;stroke:#000000;stroke-width:0.65416515px;stroke-linecap:butt;stroke-linejoin:miter;stroke-opacity:1"
                 d="m 72.827274,-75.26293 7.677794,-4.798686 4.094833,2.399313 12.711011,-7.837871 10.237088,6.478282 v 6.478282 L 72.741962,-72.7035 Z"
                 id="path2300"
                 inkscape:connector-curvature="0" />
              <path
                 inkscape:connector-curvature="0"
                 style="fill:#666666;fill-opacity:1;stroke-width:1.1534766"
                 d="m 270.91992,-990.71484 c -8.42402,0 -15.20508,6.78301 -15.20508,15.20703 v 81.73047 c 0,8.42402 6.78106,15.20507 15.20508,15.20507 h 142.44531 c 8.42402,0 15.20704,-6.78105 15.20704,-15.20507 v -81.73047 c 0,-8.42402 -6.78302,-15.20703 -15.20704,-15.20703 z m -0.20508,7.85742 h 142.5 c 3.56143,0 6.42774,2.86826 6.42774,6.42969 v 82.5 c 0,3.56142 -2.86631,6.42773 -6.42774,6.42773 h -142.5 c -3.56142,0 -6.42968,-2.86631 -6.42968,-6.42773 v -82.5 c 0,-3.56143 2.86826,-6.42969 6.42968,-6.42969 z"
                 transform="matrix(0.26458333,0,0,0.26458333,0,164.70834)"
                 id="path2302" />
              <ellipse
                 style="fill:#999999;fill-opacity:1;stroke-width:0.2712827"
                 id="ellipse2304"
                 cx="78.713539"
                 cy="-87.874252"
                 rx="4.7247024"
                 ry="3.8742561" />
            </g>
          </g>
          <g
             id="g2326">
            <rect
               y="56.61676"
               x="-137.17207"
               height="33.208939"
               width="15.682651"
               id="rect2310"
               style="fill:#b7c4c8;stroke-width:0.0958294" />
            <path
               id="path2312"
               d="m -142.23858,76.664741 h 16.08057"
               style="fill:none;stroke:#000000;stroke-width:1.77408493;stroke-linecap:round"
               inkscape:connector-curvature="0" />
            <path
               id="path2314"
               style="fill:none;stroke:#000000;stroke-width:1.77386737;stroke-linecap:round"
               inkscape:connector-curvature="0"
               d="m -142.12137,82.502086 h 16.07663" />
            <path
               inkscape:connector-curvature="0"
               id="path2316"
               d="m -122.8255,54.488063 -14.65796,0.144929 v 3.484736 h 14.4492 v 29.504916 h -14.4492 v 3.512691 h 14.34512 c 4.30545,0 3.97823,-1.656987 4.01605,-4.878366 l 0.31314,-26.65634 c 0.0378,-3.221385 0.28872,-5.155141 -4.01635,-5.112566 z"
               style="fill:#000000;stroke-width:0.14571026" />
            <g
               id="g2324"
               transform="matrix(0.4039275,0,0,0.45953483,-170.84594,104.58991)">
              <path
                 inkscape:connector-curvature="0"
                 id="path2318"
                 d="m 72.827274,-75.26293 7.677794,-4.798686 4.094833,2.399313 12.711011,-7.837871 10.237088,6.478282 v 6.478282 L 72.741962,-72.7035 Z"
                 style="fill:#999999;stroke:#000000;stroke-width:0.65416515px;stroke-linecap:butt;stroke-linejoin:miter;stroke-opacity:1" />
              <path
                 id="path2320"
                 transform="matrix(0.26458333,0,0,0.26458333,0,164.70834)"
                 d="m 270.91992,-990.71484 c -8.42402,0 -15.20508,6.78301 -15.20508,15.20703 v 81.73047 c 0,8.42402 6.78106,15.20507 15.20508,15.20507 h 142.44531 c 8.42402,0 15.20704,-6.78105 15.20704,-15.20507 v -81.73047 c 0,-8.42402 -6.78302,-15.20703 -15.20704,-15.20703 z m -0.20508,7.85742 h 142.5 c 3.56143,0 6.42774,2.86826 6.42774,6.42969 v 82.5 c 0,3.56142 -2.86631,6.42773 -6.42774,6.42773 h -142.5 c -3.56142,0 -6.42968,-2.86631 -6.42968,-6.42773 v -82.5 c 0,-3.56143 2.86826,-6.42969 6.42968,-6.42969 z"
                 style="fill:#666666;fill-opacity:1;stroke-width:1.1534766"
                 inkscape:connector-curvature="0" />
              <ellipse
                 ry="3.8742561"
                 rx="4.7247024"
                 cy="-87.874252"
                 cx="78.713539"
                 id="ellipse2322"
                 style="fill:#999999;fill-opacity:1;stroke-width:0.2712827" />
            </g>
          </g>
          <g
             id="g2334"
             transform="matrix(0.26075323,0,0,0.32441854,-167.03901,94.433893)">
            <path
               inkscape:connector-curvature="0"
               id="path2328"
               d="m 72.827274,-75.26293 7.677794,-4.798686 4.094833,2.399313 12.711011,-7.837871 10.237088,6.478282 v 6.478282 L 72.741962,-72.7035 Z"
               style="fill:#999999;stroke:#000000;stroke-width:0.65416515px;stroke-linecap:butt;stroke-linejoin:miter;stroke-opacity:1" />
            <path
               id="path2330"
               transform="matrix(0.26458333,0,0,0.26458333,0,164.70834)"
               d="m 270.91992,-990.71484 c -8.42402,0 -15.20508,6.78301 -15.20508,15.20703 v 81.73047 c 0,8.42402 6.78106,15.20507 15.20508,15.20507 h 142.44531 c 8.42402,0 15.20704,-6.78105 15.20704,-15.20507 v -81.73047 c 0,-8.42402 -6.78302,-15.20703 -15.20704,-15.20703 z m -0.20508,7.85742 h 142.5 c 3.56143,0 6.42774,2.86826 6.42774,6.42969 v 82.5 c 0,3.56142 -2.86631,6.42773 -6.42774,6.42773 h -142.5 c -3.56142,0 -6.42968,-2.86631 -6.42968,-6.42773 v -82.5 c 0,-3.56143 2.86826,-6.42969 6.42968,-6.42969 z"
               style="fill:#666666;fill-opacity:1;stroke-width:1.1534766"
               inkscape:connector-curvature="0" />
            <ellipse
               ry="3.8742561"
               rx="4.7247024"
               cy="-87.874252"
               cx="78.713539"
               id="ellipse2332"
               style="fill:#999999;fill-opacity:1;stroke-width:0.2712827" />
          </g>
          <path
             style="color:#000000;text-indent:0;text-transform:none;fill:#008952;fill-opacity:1;stroke-width:0.33149159"
             d="m -111.12163,38.410657 -2.4e-4,0.003 c -8.90702,0 -17.81596,3.268293 -24.58707,9.815734 -13.54224,13.094559 -13.55769,34.468189 -0.0155,47.562426 11.87187,11.479383 30.30963,12.894693 43.803649,4.247343 l 20.535844,19.85695 c 2.709861,2.62029 7.069036,2.62029 9.778699,0 2.709893,-2.62027 2.709893,-6.83537 0,-9.45584 l -20.52038,-19.856692 c 8.932303,-13.046321 7.459272,-30.879987 -4.408217,-42.356754 -6.771118,-6.547113 -15.680145,-9.815991 -24.586825,-9.815991 z m -0.0166,8.857917 h 7.4e-4 c 6.53008,0.003 13.058888,2.421348 18.06761,7.264452 10.01745,9.686212 10.032904,25.269336 0.01546,34.956859 -10.01744,9.686202 -26.13338,9.686202 -36.15116,0 -10.01745,-9.686218 -10.01745,-25.269018 0,-34.956859 5.00872,-4.843267 11.53729,-7.267713 18.06738,-7.264452 z"
             id="path2336"
             inkscape:connector-curvature="0" />
        </g>
      </g>
      <g
         transform="translate(-419.52144,178.91402)"
         id="g2408">
        <flowRoot
           xml:space="preserve"
           id="flowRoot1854"
           style="font-style:normal;font-weight:normal;font-size:40px;line-height:1.25;font-family:sans-serif;letter-spacing:0px;word-spacing:0px;fill:#668025;fill-opacity:1;stroke:none"
           transform="matrix(0.60137965,0,0,0.57068862,233.77601,-408.60033)"><flowRegion
             id="flowRegion1850"
             style="fill:#668025;fill-opacity:1"><rect
               id="rect1848"
               width="797.14288"
               height="388.57144"
               x="-511.42856"
               y="422.85715"
               style="fill:#668025;fill-opacity:1" /></flowRegion><flowPara
             id="flowPara1852">LABELLAB</flowPara></flowRoot>        <rect
           y="-143.3947"
           x="-77.353714"
           height="3.2072344"
           width="129.96738"
           id="rect1856"
           style="fill:#668025;fill-opacity:1;stroke-width:0.30497512" />
        <rect
           style="fill:#668025;fill-opacity:1;stroke-width:0.30031487"
           id="rect1858"
           width="126.02572"
           height="3.2072344"
           x="-75.79361"
           y="-168.48235" />
        <rect
           style="fill:#668025;fill-opacity:1;stroke-width:0.14214623"
           id="rect2396"
           width="28.234249"
           height="3.2072344"
           x="-168.50504"
           y="-52.87302"
           transform="matrix(-5.8067719e-4,0.99999983,-1,-3.3565358e-5,0,0)" />
        <rect
           transform="matrix(-5.7992285e-4,0.99999983,-1,-3.3609019e-5,0,0)"
           y="74.748032"
           x="-168.45683"
           height="3.2072344"
           width="28.270975"
           id="rect2398"
           style="fill:#668025;fill-opacity:1;stroke-width:0.14223866" />
      </g>
    </g>
  </g>
</svg>
